<svg width="196" height="195" viewBox="0 0 196 195" fill="none" xmlns="http://www.w3.org/2000/svg">
<g clip-path="url(#clip0_1_2)">
<path d="M166.9 28.7C148 9.6 125.5 0 99.2 0C71.4 0 48 9.4 28.8 28.3C9.6 47.2 0 70.2 0 97.4C0 124.3 9.5 147.3 28.6 166.4C47.6 185.4 70.6 195 97.6 195C124.7 195 147.8 185.5 166.7 166.6C185.7 147.6 195.1 124.6 195.1 97.5C195.1 70.7 185.7 47.8 166.9 28.7ZM95.1 109.9C90.3 111 87.7 113.5 87.2 117.5L86.8 121.4C86.7 122.1 86.6 122.5 86.6 122.6V146C86.6 155.1 84.7 161.4 81 164.9C77.3 168.4 70.7 170.2 61.1 170.2L56.5 170.1L50.4 169.8L45.2 169.6V147.4L48.8 147.5C53.8 147.5 57 146.9 58.5 145.7C59.9 144.5 60.7 142 60.7 138.1V136.1V118.7C60.7 113 61.3 108.7 62.5 105.9C63.7 103.1 66.2 100.3 70 97.4C66.5 94.9 64 92.2 62.7 89.2C61.4 86.2 60.7 81.9 60.7 76.3V58.3V56.4C60.7 52.2 60 49.6 58.5 48.6C57 47.5 53.4 47 47.7 47L45.3 47.1V25.4C47.1 25.4 48.8 25.3 50.5 25.2L60 24.7L65.8 25C79.8 25 86.8 33 86.8 49.1V72.7C86.8 77.2 87.4 80.5 88.7 82.7C90 84.9 92.2 86.3 95.3 86.9V109.9H95.1ZM149.9 47.4L146.3 47.3C141.3 47.3 138.1 47.9 136.6 49C135.2 50.1 134.4 52.7 134.4 56.7V58.7V76.1C134.4 81.8 133.8 86 132.6 88.8C131.4 91.6 128.9 94.4 125.1 97.3C128.6 99.8 131.1 102.6 132.4 105.6C133.7 108.6 134.4 112.9 134.4 118.5V136.5V138.4C134.4 142.6 135.1 145.2 136.6 146.2C138.1 147.3 141.7 147.8 147.4 147.8H149.8V169.5C148 169.5 146.2 169.5 144.5 169.6L135.1 170.1L129.3 169.8C121.6 169.3 116.2 167.2 113.1 163.6C109.9 160 108.4 154.1 108.4 145.8V122.2C108.4 117.6 107.8 114.3 106.5 112.1C105.2 109.9 103 108.5 99.9 107.9V85C104.7 84 107.3 81.5 107.8 77.5L108.3 73.5C108.4 72.9 108.4 72.5 108.4 72.4V48.9C108.4 39.8 110.3 33.5 114 30C117.7 26.5 124.3 24.7 133.9 24.7L138.5 24.8L144.5 25.1L149.8 25.3V47.4H149.9Z" fill="black"/>
</g>
<defs>
<clipPath id="clip0_1_2">
<rect width="195.1" height="195" fill="white"/>
</clipPath>
</defs>
</svg>
