<svg width="1231" height="226" viewBox="0 0 1231 226" fill="none" xmlns="http://www.w3.org/2000/svg">
<g clip-path="url(#clip0_1_6)">
<path d="M201.8 16.8C228.1 16.8 250.7 26.4 269.5 45.5C288.3 64.6 297.7 87.5 297.7 114.2C297.7 141.3 288.2 164.4 269.3 183.3C250.3 202.3 227.3 211.7 200.2 211.7C173.3 211.7 150.3 202.2 131.2 183.1C112.1 164 102.6 141.1 102.6 114.1C102.6 86.9 112.2 63.9 131.4 45C150.6 26.3 174.1 16.8 201.8 16.8ZM200.2 71.5C188.9 71.5 179.2 75.7 171.2 84C163.2 92.3 159.2 102.4 159.2 114.2C159.2 126 163.2 136.1 171.2 144.4C179.2 152.7 188.9 156.9 200.1 156.9C211.5 156.9 221.2 152.8 229.1 144.5C237 136.2 241 126.1 241 114.2C241 102.3 237 92.2 229.1 83.9C221.3 75.7 211.6 71.5 200.2 71.5Z" fill="black"/>
<path d="M517.7 21.4V207.1H462.5V21.4H517.7Z" fill="black"/>
<path d="M610.1 74.8V207.2H554.9V21.4H626.9C658.5 21.4 683.2 28.6 701 42.9C722.2 60 732.8 83.3 732.8 112.7C732.8 140.8 723.7 163.8 705.6 181.5C687.5 199.3 664.1 208.2 635.5 208.2C632.1 208.2 626.7 208 619 207.7V153.1H627.8C660 153.1 676.1 139.6 676.1 112.7C676.1 87.4 660.3 74.7 628.6 74.7H610.1V74.8Z" fill="black"/>
<path d="M857.9 93.7V135H821.8C816.9 135 813.4 135.7 811.4 137.2C809.4 138.7 808.3 141.1 808.3 144.5C808.3 148.4 809.3 151 811.4 152.2C813.5 153.4 817.7 154 824.2 154H861.3V207.1H818C797.6 207.1 782 202.2 771.2 192.5C760.4 182.8 755 168.7 755 150.3V77.5C755 59.7 760.1 45.9 770.3 36.1C780.5 26.3 794.9 21.4 813.4 21.4H861.4V74.7H826.2C816.7 74.7 811.9 77.8 811.9 84C811.9 87.6 813 90.1 815.3 91.6C817.6 93 821.6 93.7 827.4 93.7H857.9Z" fill="black"/>
<path d="M1026.6 21.4L945.7 217.7L865.2 21.4H929.1L946.1 79.4L964.9 21.4H1026.6Z" fill="black"/>
<path d="M1125.9 20.6V73.5C1121.9 72.1 1118.8 71.5 1116.6 71.5C1112.4 71.5 1108.8 73 1105.9 76.1C1102.9 79.2 1101.4 82.9 1101.4 87.3C1101.4 91 1103 95.7 1106.3 101.4L1110.5 108.7C1118.1 121.9 1121.9 134.7 1121.9 147.1C1121.9 165.1 1115.5 180.4 1102.6 192.9C1089.8 205.4 1074.1 211.7 1055.6 211.7C1046.7 211.7 1037.9 209.7 1029.2 205.6V151.9C1034.5 155.3 1039.1 156.9 1043.2 156.9C1048 156.9 1052 155.5 1055.2 152.8C1058.4 150 1060 146.6 1060 142.4C1060 139.7 1057.4 133.7 1052.2 124.6C1043.9 110.1 1039.8 95.6 1039.8 81.1C1039.8 63.6 1046 48.5 1058.5 35.9C1071 23.2 1085.9 16.9 1103.2 16.9C1111 16.8 1118.5 18.1 1125.9 20.6Z" fill="black"/>
<path d="M42 112.5C47.9 116.4 52 120.7 54.2 125.4C56.4 130.1 57.5 136.7 57.5 145.3V173.2V176.2C57.5 182.6 58.7 186.7 61.2 188.3C63.7 189.9 69.7 190.7 79.2 190.7H83.1V224.3C80 224.3 77.1 224.3 74.3 224.4L58.7 225.2L49 224.8C36.2 224 27.2 220.8 21.9 215.2C16.6 209.6 14 200.4 14 187.7V151.1C14 144 12.9 138.8 10.8 135.5C8.69999 132.1 4.99999 130 -0.200012 129V93.3C7.79999 91.8 12.2 87.9 13 81.7L13.8 75.6C13.9 74.6 13.9 74 13.9 73.8V37.5C13.9 23.4 17 13.7 23.2 8.2C29.7 2.7 40.7 0 56.6 0L64.4 0.1L74.5 0.5L83.3 0.8V35.2L77.3 35.1C69 35.1 63.6 36 61.2 37.8C58.8 39.6 57.6 43.5 57.6 49.7V52.8V79.7C57.6 88.5 56.6 95.1 54.5 99.4C52.4 103.7 48.3 108.1 42 112.5Z" fill="black"/>
<path d="M1188.2 112.8C1182.3 109 1178.2 104.8 1176 100.1C1173.8 95.4 1172.7 88.8 1172.7 80.2V52.2V49.2C1172.7 42.8 1171.5 38.7 1169 37.1C1166.5 35.5 1160.5 34.7 1151 34.7L1147.1 34.8V1.1C1150.1 1.1 1153 1 1155.8 0.8L1171.6 0L1181.3 0.4C1204.6 0.4 1216.3 12.8 1216.3 37.7V74.3C1216.3 81.3 1217.4 86.5 1219.5 89.8C1221.6 93.2 1225.3 95.3 1230.5 96.3V132C1222.5 133.6 1218.1 137.5 1217.3 143.7L1216.6 149.7C1216.4 150.8 1216.3 151.4 1216.3 151.6V187.9C1216.3 202 1213.2 211.7 1207 217.2C1200.8 222.7 1189.7 225.4 1173.9 225.4L1166.1 225.3L1155.9 224.9L1147.2 224.6V190.2L1153.2 190.3C1161.5 190.3 1166.9 189.4 1169.3 187.6C1171.7 185.8 1172.9 181.8 1172.9 175.8V172.7V145.8C1172.9 136.9 1173.9 130.3 1176 126C1177.8 121.6 1182 117.2 1188.2 112.8Z" fill="black"/>
<path d="M339.2 115.2C334.7 112 331.5 108.5 329.8 104.6C328.1 100.7 327.2 95.2 327.2 88.1V64.8V62.3C327.2 57 326.2 53.6 324.3 52.2C322.4 50.8 317.8 50.2 310.4 50.2L307.4 50.3V22.5C309.7 22.5 311.9 22.4 314.1 22.3L326.3 21.6L333.7 21.9C351.7 21.9 360.6 32.2 360.6 52.8V83.2C360.6 89 361.4 93.3 363.1 96.1C364.7 98.9 367.6 100.7 371.5 101.5V131.1C365.4 132.5 362 135.7 361.3 140.8L360.8 145.8C360.7 146.7 360.6 147.2 360.6 147.4V177.6C360.6 189.3 358.2 197.4 353.4 201.9C348.6 206.5 340.1 208.7 327.9 208.7L321.9 208.6L314 208.3L307.3 208.1V179.5L311.9 179.6C318.3 179.6 322.5 178.8 324.3 177.3C326.2 175.8 327.1 172.5 327.1 167.5V164.9V142.5C327.1 135.1 327.9 129.6 329.5 126.1C331.2 122.5 334.4 118.9 339.2 115.2Z" fill="black"/>
<path d="M410.1 115C414.6 118.2 417.8 121.8 419.5 125.7C421.2 129.6 422.1 135.1 422.1 142.2V165.4V167.9C422.1 173.2 423.1 176.6 425 178C426.9 179.4 431.5 180 438.9 180H441.9V207.9C439.5 207.9 437.3 207.9 435.1 208L423 208.7L415.6 208.4C405.7 207.7 398.8 205.1 394.7 200.4C390.6 195.8 388.6 188.1 388.6 177.5V147.1C388.6 141.2 387.8 136.9 386.1 134.1C384.5 131.3 381.6 129.5 377.7 128.7V99.1C383.8 97.8 387.2 94.6 387.9 89.5L388.5 84.4C388.6 83.6 388.6 83.1 388.6 82.9V52.8C388.6 41.1 391 33 395.8 28.5C400.6 23.9 409.1 21.7 421.3 21.7L427.3 21.8L435.1 22.1L441.9 22.3V50.9L437.3 50.8C430.9 50.8 426.7 51.5 424.9 53C423 54.5 422.1 57.8 422.1 62.9V65.5V87.9C422.1 95.2 421.3 100.6 419.7 104.2C418.2 107.7 415 111.3 410.1 115Z" fill="black"/>
</g>
<defs>
<clipPath id="clip0_1_6">
<rect width="1230.3" height="225.4" fill="white"/>
</clipPath>
</defs>
</svg>
